<svg width="250" height="120" viewBox="0 0 250 120" xmlns="http://www.w3.org/2000/svg"><g fill="none" fill-rule="evenodd"><path d="M68.505 47.03v29.047L79.07 51.92 91.29 83.067h17.63l-.168 17.685H24.25l.54-17.035h15.345l13.96-31.8 11.202 24.516v-45.3l17.068-6.256v4.686l14.893-5.46-5.506 11.45 5.506 6.482-17.928 6.572v-5.545L68.505 47.03zM-13-19h283v162H-13V-19z" fill="#A01BE7"/><path d="M140.545 42.053L138.415 53h-2.88l2.13-10.947h-3.966l.43-2.227h10.81l-.43 2.227h-3.965zM150.75 53l1.094-5.605H148.3L147.204 53h-2.88l2.558-13.174h2.88l-1.005 5.186h3.545l1.006-5.186h2.88L153.63 53h-2.88zm5.566 0l2.56-13.174h9.452l-.43 2.227h-6.572l-.615 3.164h5.977l-.43 2.226h-5.976l-.653 3.33h6.973L166.17 53h-9.854zm-16.474 23l1.65-8.477c.065-.332.18-.825.342-1.48.163-.653.29-1.14.38-1.46-.702 1.772-1.16 2.882-1.376 3.33l-2.1 4.57h-2.13l-.34-4.57c-.046-.65-.08-1.76-.098-3.33-.182 1.433-.326 2.413-.43 2.94L134.09 76h-2.15l2.56-13.174h3.39l.37 4.873.02.458c0 .28-.03.88-.09 1.797.333-.97.61-1.72.83-2.246l2.277-4.884h3.27L142.01 76h-2.168zm7.226-13.174h8.946l-.43 2.227h-3.086l-1.7 8.72h3.087l-.43 2.227h-8.945l.43-2.227h3.085l1.7-8.72h-3.086l.428-2.227zM162.283 76l-1.836-9.863-.117 1.347c-.117 1.068-.208 1.77-.273 2.11L158.807 76h-2.51l2.558-13.174h3.29l1.876 10.127c.12-1.556.26-2.744.42-3.564l1.27-6.564h2.51L165.663 76h-3.38zm8.79-13.174h8.945l-.43 2.227h-3.086l-1.7 8.72h3.087L177.46 76h-8.946l.43-2.227h3.085l1.7-8.72h-3.087l.43-2.227zm13.837 13.37c-1.53 0-2.713-.323-3.55-.967-.836-.646-1.274-1.584-1.313-2.814l2.86-.36c.034.61.252 1.094.655 1.45.404.354 1.02.53 1.846.53.645 0 1.177-.075 1.597-.228.42-.153.74-.388.962-.704.22-.315.332-.662.332-1.04 0-.69-.633-1.2-1.896-1.533-1.452-.37-2.438-.697-2.96-.98-.52-.283-.923-.627-1.21-1.03-.286-.404-.43-.886-.43-1.446 0-.58.124-1.14.372-1.684.247-.544.63-1.027 1.152-1.45.52-.424 1.148-.75 1.88-.977.732-.228 1.525-.342 2.378-.342 1.458 0 2.542.29 3.252.865.71.577 1.068 1.47 1.074 2.68l-2.85.284c-.054-1.192-.695-1.788-1.925-1.788-.528 0-.974.073-1.338.22-.366.146-.642.363-.83.65-.19.286-.284.588-.284.907 0 .26.076.478.23.654.152.176.36.327.624.454s.81.3 1.636.522c1.1.293 1.915.59 2.446.89.53.298.923.655 1.177 1.068.253.414.38.878.38 1.392 0 .86-.254 1.667-.762 2.422-.508.755-1.235 1.336-2.183 1.743-.947.407-2.055.61-3.325.61zm15.645-11.143L198.425 76h-2.88l2.13-10.947h-3.966l.43-2.227h10.81l-.43 2.227h-3.965zM204.325 76l2.558-13.174h9.453l-.43 2.227h-6.572l-.615 3.164h5.975l-.43 2.226h-5.976l-.655 3.33h6.972l-.43 2.227h-9.853zm19.404 0l-1.857-5.03h-1.69l-.976 5.03h-2.88l2.558-13.174h4.824c1.496 0 2.616.256 3.358.767.743.51 1.114 1.25 1.114 2.22 0 .457-.074.93-.22 1.422-.147.492-.373.943-.68 1.353-.305.41-.686.766-1.14 1.07-.457.302-.95.525-1.476.668L226.97 76h-3.24zm1.483-9.6c0-.494-.194-.84-.58-1.04-.39-.198-.94-.297-1.656-.297h-1.64l-.714 3.67h1.72c1.64 0 2.58-.627 2.82-1.883l.05-.45zm-87.197 27.952h-1.924L135.184 99h-2.88l2.557-13.174h4.69c1.45 0 2.553.267 3.304.8.752.535 1.128 1.32 1.128 2.354 0 .69-.144 1.382-.434 2.076-.29.693-.69 1.282-1.2 1.767-.512.485-1.134.86-1.867 1.128-.73.268-1.553.402-2.464.402zm3.007-4.854c0-.514-.187-.882-.56-1.103-.375-.222-.93-.332-1.666-.332h-1.484l-.792 4.072h1.564c1.654 0 2.614-.7 2.88-2.1.04-.195.06-.374.06-.537zM151.717 99l-1.856-5.03h-1.688l-.977 5.03h-2.88l2.558-13.174h4.824c1.498 0 2.617.256 3.36.767.742.51 1.113 1.25 1.113 2.22 0 .457-.073.93-.22 1.422-.146.492-.373.943-.68 1.353-.305.41-.685.766-1.14 1.07-.457.302-.948.525-1.476.668L154.96 99h-3.243zm1.484-9.6c0-.494-.193-.84-.58-1.04-.387-.198-.94-.297-1.655-.297h-1.64l-.714 3.67h1.72c1.64 0 2.58-.627 2.822-1.883l.05-.45zm5.87-3.574h8.946l-.43 2.227H164.5l-1.7 8.72h3.087l-.43 2.227h-8.945l.43-2.227h3.085l1.7-8.72h-3.086l.43-2.227zM175.848 99l1.65-8.477c.065-.332.18-.825.342-1.48.163-.653.29-1.14.38-1.46-.702 1.772-1.16 2.882-1.376 3.33l-2.1 4.57h-2.13l-.34-4.57c-.046-.65-.08-1.76-.098-3.33-.183 1.433-.326 2.413-.43 2.94L170.096 99h-2.15l2.56-13.174h3.39l.37 4.873.02.458c0 .28-.03.88-.09 1.797.333-.97.61-1.72.83-2.246l2.277-4.884h3.27L178.017 99h-2.168zm4.472 0l2.56-13.174h9.452l-.43 2.227h-6.572l-.615 3.164h5.976l-.428 2.226h-5.977l-.654 3.33h6.974l-.43 2.227h-9.854z" fill="#FFF"/></g></svg>