<svg viewBox="0 0 919 1260" xmlns="http://www.w3.org/2000/svg"><defs><linearGradient x1="0%" y1="0%" y2="104.205%" id="a"><stop stop-color="#FFE500" offset="0%"/><stop stop-color="#0AAFFF" offset="34.937%"/><stop stop-color="#FF2175" offset="72.437%"/><stop stop-color="#06E085" offset="100%"/></linearGradient></defs><path d="M61.816 15.234v116.504H43.262V15.234H0V0h105.078v15.234H61.816zm132.23 116.504v-60.84H143.07v60.84h-18.652V0h18.652v55.273h50.977V0H212.7v131.738h-18.653zm46.392 0V0h89.746v15.234H259.09v41.21h65.234v15.04H259.09v45.02h75.098v15.234h-93.75zm307.722 0V46.973c0-3.32.016-6.706.05-10.157.032-3.45.113-6.608.243-9.472.13-3.32.228-6.576.293-9.766-1.107 3.58-2.213 7.096-3.32 10.547-.912 2.93-1.905 6.022-2.98 9.277-1.073 3.256-2.066 6.12-2.977 8.594L523.452 88.77h-13.38l-16.21-42.774c-.39-.976-.814-2.132-1.27-3.467-.455-1.335-.927-2.768-1.415-4.298-.49-1.53-.993-3.092-1.514-4.687-.52-1.595-1.042-3.174-1.562-4.736-1.172-3.582-2.377-7.326-3.614-11.232.065 3.125.13 6.38.196 9.766.065 2.93.114 6.103.146 9.52.033 3.42.05 6.788.05 10.11v84.764h-15.626V0h23.144l18.067 47.754c.586 1.497 1.253 3.5 2.002 6.006.748 2.506 1.48 4.996 2.197 7.47.78 2.865 1.595 5.892 2.44 9.083.913-3.06 1.76-5.99 2.54-8.79.717-2.408 1.465-4.882 2.247-7.42.782-2.54 1.465-4.624 2.05-6.25L542.01 0h21.972v131.738h-15.82zM592.402 0h80.37v15.234h-30.858v101.27h30.86v15.234H592.4v-15.234h30.86V15.234h-30.86V0zm177.934 131.738l-50.78-110.35c.26 2.798.52 5.663.78 8.592.195 2.474.374 5.16.537 8.057.163 2.897.244 5.615.244 8.154v85.548h-16.6V0h21.678l51.563 111.133c-.326-2.604-.62-5.404-.88-8.4-.26-2.538-.47-5.402-.634-8.592-.163-3.19-.244-6.445-.244-9.765V0h16.797v131.738h-22.46zM824.44 0h80.372v15.234h-30.86v101.27h30.86v15.234h-80.37v-15.234h30.86V15.234h-30.86V0zM102.735 275.605c0 5.534-1.01 10.63-3.027 15.284-2.018 4.654-5.094 8.674-9.228 12.06-4.136 3.385-9.376 6.02-15.724 7.91-6.348 1.887-13.884 2.83-22.608 2.83-15.234 0-27.1-2.993-35.595-8.983-8.496-5.99-13.916-14.648-16.26-25.977l18.066-3.613c.78 3.58 1.952 6.836 3.515 9.766 1.563 2.93 3.71 5.452 6.445 7.568 2.735 2.117 6.088 3.76 10.06 4.933 3.97 1.172 8.723 1.758 14.257 1.758 4.687 0 8.968-.44 12.842-1.318 3.872-.88 7.193-2.262 9.96-4.15 2.766-1.888 4.93-4.297 6.494-7.227 1.562-2.93 2.343-6.445 2.343-10.547 0-4.557-1.058-8.268-3.173-11.132-2.116-2.865-4.9-5.21-8.35-7.032-3.45-1.823-7.34-3.304-11.67-4.443-4.33-1.138-8.708-2.26-13.135-3.368-3.256-.846-6.544-1.742-9.864-2.686-3.32-.944-6.51-2.05-9.57-3.32-3.06-1.27-5.91-2.767-8.545-4.492-2.636-1.725-4.947-3.81-6.933-6.25-1.986-2.442-3.532-5.306-4.64-8.594-1.105-3.288-1.66-7.113-1.66-11.475 0-6.25 1.173-11.604 3.517-16.064 2.344-4.46 5.566-8.104 9.668-10.936 4.1-2.833 8.952-4.9 14.55-6.202 5.6-1.302 11.654-1.953 18.165-1.953 7.552 0 13.98.667 19.287 2 5.306 1.336 9.798 3.338 13.476 6.007 3.68 2.67 6.625 5.973 8.838 9.912 2.214 3.938 3.972 8.51 5.274 13.72l-18.36 3.222c-.716-3.32-1.774-6.282-3.173-8.886-1.4-2.604-3.257-4.785-5.568-6.543-2.31-1.758-5.094-3.093-8.35-4.004-3.255-.913-7.096-1.368-11.523-1.368-5.21 0-9.57.537-13.087 1.61-3.516 1.075-6.348 2.54-8.496 4.396-2.148 1.855-3.695 4.052-4.64 6.59-.943 2.54-1.415 5.275-1.415 8.204 0 3.907.863 7.08 2.588 9.522 1.726 2.44 4.07 4.46 7.03 6.055 2.964 1.594 6.414 2.912 10.353 3.954 3.94 1.04 8.154 2.148 12.647 3.32 3.58.912 7.194 1.872 10.84 2.88 3.645 1.01 7.145 2.198 10.497 3.565 3.353 1.367 6.478 2.978 9.375 4.833 2.898 1.856 5.42 4.118 7.57 6.787 2.147 2.67 3.84 5.795 5.077 9.375 1.236 3.58 1.854 7.748 1.854 12.5zm75.102-80.37v116.503H159.28V195.234h-43.26V180h105.078v15.234h-43.262zm62.6 116.503V180h89.748v15.234H259.09v41.21h65.234v15.04H259.09v45.02h75.098v15.234h-93.75zm193.658 0l-35.742-56.152H375.11v56.152h-18.653V180h47.07c7.813 0 14.632.83 20.46 2.49 5.826 1.66 10.676 4.07 14.55 7.227 3.874 3.157 6.77 6.982 8.692 11.474 1.92 4.494 2.88 9.572 2.88 15.236 0 4.036-.635 8.056-1.905 12.06-1.27 4.004-3.27 7.683-6.006 11.035-2.735 3.354-6.218 6.268-10.45 8.742-4.232 2.474-9.31 4.2-15.234 5.175l39.062 58.3h-21.484zm-2.735-95.02c0-14.518-9.896-21.777-29.688-21.777H375.11v45.9h27.343c5.404 0 9.945-.65 13.623-1.953 3.68-1.302 6.64-3.044 8.887-5.225 2.246-2.18 3.874-4.736 4.883-7.666 1.01-2.93 1.513-6.022 1.513-9.277zm250.593 2.735c0 5.47-.96 10.726-2.88 15.772-1.92 5.045-4.85 9.52-8.79 13.427-3.94 3.907-8.87 7.032-14.795 9.375-5.924 2.344-12.89 3.516-20.898 3.516h-27.442v50.195h-18.652V180h44.922c8.138 0 15.234.944 21.29 2.832 6.054 1.888 11.1 4.557 15.136 8.008 4.036 3.45 7.064 7.6 9.082 12.45 2.018 4.85 3.027 10.24 3.027 16.163zm-18.75.293c0-8.138-2.67-14.307-8.008-18.506-5.338-4.2-13.346-6.3-24.023-6.3h-24.024v51.857h24.805c5.34 0 9.977-.7 13.916-2.1 3.938-1.4 7.193-3.304 9.765-5.713 2.57-2.408 4.476-5.273 5.713-8.593 1.237-3.32 1.855-6.868 1.855-10.644zm118.95 91.992l-35.743-56.152h-23.242v56.152h-18.652V180h47.07c7.812 0 14.632.83 20.46 2.49 5.826 1.66 10.676 4.07 14.55 7.227 3.873 3.157 6.77 6.982 8.69 11.474 1.922 4.494 2.882 9.572 2.882 15.236 0 4.036-.635 8.056-1.904 12.06-1.27 4.004-3.272 7.683-6.006 11.035-2.735 3.354-6.218 6.268-10.45 8.742-4.23 2.474-9.31 4.2-15.234 5.175l39.063 58.3h-21.485zm-2.735-95.02c0-14.518-9.896-21.777-29.688-21.777h-26.562v45.9h27.344c5.403 0 9.944-.65 13.623-1.953 3.678-1.302 6.64-3.044 8.886-5.225 2.248-2.18 3.875-4.736 4.884-7.666 1.01-2.93 1.514-6.022 1.514-9.277zM824.44 180h80.372v15.234h-30.86v101.27h30.86v15.234h-80.37v-15.234h30.86v-101.27h-30.86V180zM84.083 491.738v-84.765c0-3.32.016-6.706.05-10.157.03-3.45.113-6.608.243-9.472.13-3.32.228-6.576.293-9.766-1.107 3.58-2.214 7.096-3.32 10.547-.912 2.93-1.905 6.022-2.98 9.277-1.073 3.256-2.066 6.12-2.977 8.594L59.376 448.77h-13.38l-16.21-42.774c-.39-.976-.814-2.132-1.27-3.467-.455-1.335-.927-2.768-1.415-4.298-.49-1.53-.993-3.092-1.514-4.687-.52-1.595-1.042-3.174-1.563-4.736-1.17-3.582-2.376-7.326-3.613-11.232.065 3.125.13 6.38.195 9.766.066 2.93.114 6.103.147 9.52.033 3.42.05 6.788.05 10.11v84.764H5.175V360H28.32l18.067 47.754c.586 1.497 1.253 3.5 2.002 6.006.747 2.506 1.48 4.996 2.196 7.47.78 2.865 1.595 5.892 2.44 9.082.913-3.06 1.76-5.99 2.54-8.79.717-2.407 1.465-4.88 2.246-7.42.782-2.54 1.465-4.623 2.05-6.25L77.93 360h21.972v131.738h-15.82zm40.336 0V360h89.746v15.234H143.07v41.21h65.235v15.04H143.07v45.02h75.098v15.234h-93.75zm285.457-116.504v116.504H391.32V375.234h-43.26V360h105.077v15.234h-43.262zm132.23 116.504v-60.84H491.13v60.84h-18.653V360h18.652v55.273h50.975V360h18.653v131.738h-18.653zm46.39 0V360h89.747v15.234h-71.094v41.21h65.235v15.04h-65.235v45.02h75.098v15.234h-93.75zm307.724 0v-84.765c0-3.32.015-6.706.048-10.157.032-3.45.114-6.608.244-9.472.13-3.32.228-6.576.293-9.766-1.107 3.58-2.214 7.096-3.32 10.547-.912 2.93-1.905 6.022-2.98 9.277-1.073 3.256-2.066 6.12-2.978 8.594l-16.015 42.774h-13.38l-16.21-42.774c-.39-.976-.814-2.132-1.27-3.467-.455-1.335-.927-2.768-1.416-4.298-.488-1.53-.993-3.092-1.513-4.687-.52-1.595-1.042-3.174-1.563-4.736-1.172-3.582-2.376-7.326-3.613-11.232.065 3.125.13 6.38.195 9.766.065 2.93.114 6.103.147 9.52.03 3.42.048 6.788.048 10.11v84.764h-15.625V360h23.144l18.066 47.754c.586 1.497 1.254 3.5 2.002 6.006.75 2.506 1.482 4.996 2.198 7.47.78 2.865 1.595 5.892 2.44 9.082.913-3.06 1.76-5.99 2.54-8.79.716-2.407 1.465-4.88 2.246-7.42.78-2.54 1.464-4.623 2.05-6.25L890.066 360h21.973v131.738h-15.82zM12.304 540h80.37v15.234h-30.86v101.27h30.86v15.234h-80.37v-15.234h30.86v-101.27h-30.86V540zm177.933 131.738l-50.78-110.35c.26 2.798.52 5.663.78 8.592.196 2.474.375 5.16.537 8.057.163 2.897.245 5.615.245 8.154v85.548h-16.602V540h21.68l51.562 111.133c-.325-2.604-.618-5.404-.88-8.4-.26-2.538-.47-5.402-.634-8.592-.162-3.19-.244-6.445-.244-9.765V540H212.7v131.738h-22.462zM244.344 540h80.37v15.234h-30.86v101.27h30.86v15.234h-80.37v-15.234h30.86v-101.27h-30.86V540zm206.45 95.605c0 5.534-1.01 10.63-3.028 15.284-2.02 4.654-5.095 8.674-9.23 12.06-4.133 3.385-9.374 6.02-15.722 7.91-6.347 1.887-13.883 2.83-22.607 2.83-15.234 0-27.1-2.993-35.596-8.983-8.495-5.99-13.915-14.648-16.258-25.977l18.066-3.613c.78 3.58 1.953 6.836 3.516 9.766 1.562 2.93 3.71 5.452 6.445 7.568 2.733 2.117 6.086 3.76 10.058 4.933 3.97 1.172 8.723 1.758 14.257 1.758 4.688 0 8.968-.44 12.842-1.318 3.874-.88 7.194-2.262 9.96-4.15 2.768-1.888 4.933-4.297 6.495-7.227 1.563-2.93 2.344-6.445 2.344-10.547 0-4.557-1.058-8.268-3.174-11.132-2.116-2.865-4.9-5.21-8.35-7.032-3.45-1.823-7.34-3.304-11.67-4.443-4.33-1.138-8.707-2.26-13.134-3.368-3.255-.846-6.543-1.742-9.863-2.686-3.32-.944-6.51-2.05-9.57-3.32-3.06-1.27-5.91-2.767-8.546-4.492-2.637-1.725-4.95-3.81-6.934-6.25-1.986-2.442-3.532-5.306-4.64-8.594-1.106-3.288-1.66-7.113-1.66-11.475 0-6.25 1.173-11.604 3.517-16.064 2.343-4.46 5.566-8.104 9.667-10.936 4.102-2.833 8.952-4.9 14.55-6.202 5.6-1.302 11.655-1.953 18.165-1.953 7.552 0 13.98.667 19.287 2 5.306 1.336 9.8 3.338 13.477 6.007 3.677 2.67 6.623 5.973 8.837 9.912 2.213 3.938 3.97 8.51 5.273 13.72l-18.36 3.222c-.715-3.32-1.773-6.282-3.173-8.886-1.4-2.604-3.255-4.785-5.566-6.543-2.31-1.758-5.094-3.093-8.35-4.004-3.254-.913-7.095-1.368-11.522-1.368-5.21 0-9.57.537-13.086 1.61-3.516 1.075-6.348 2.54-8.496 4.396-2.15 1.855-3.695 4.052-4.64 6.59-.943 2.54-1.415 5.275-1.415 8.205 0 3.906.864 7.08 2.59 9.52 1.724 2.442 4.068 4.46 7.03 6.056 2.962 1.594 6.413 2.912 10.352 3.954 3.938 1.04 8.154 2.148 12.646 3.32 3.58.912 7.194 1.872 10.84 2.88 3.646 1.01 7.145 2.198 10.498 3.565 3.353 1.367 6.478 2.978 9.375 4.833 2.898 1.856 5.42 4.118 7.57 6.787 2.148 2.67 3.84 5.795 5.077 9.375s1.856 7.748 1.856 12.5zm75.1-80.37v116.503H507.34V555.234h-43.262V540h105.078v15.234h-43.26zm62.602 116.503V540h89.746v15.234h-71.094v41.21h65.235v15.04h-65.235v45.02h75.098v15.234h-93.75zm193.656 0l-35.742-56.152h-23.242v56.152h-18.652V540h47.07c7.812 0 14.632.83 20.46 2.49 5.826 1.66 10.676 4.07 14.55 7.227 3.873 3.157 6.77 6.982 8.69 11.474 1.922 4.494 2.882 9.572 2.882 15.236 0 4.036-.635 8.056-1.904 12.06-1.27 4.004-3.272 7.683-6.006 11.035-2.735 3.354-6.218 6.268-10.45 8.742-4.23 2.474-9.31 4.2-15.234 5.176l39.063 58.3h-21.485zm-2.734-95.02c0-14.518-9.896-21.777-29.688-21.777h-26.562v45.9h27.344c5.403 0 9.944-.65 13.623-1.953 3.678-1.302 6.64-3.044 8.886-5.225 2.248-2.18 3.875-4.736 4.884-7.666 1.01-2.93 1.514-6.022 1.514-9.277zM101.855 759.454c0 5.47-.96 10.726-2.88 15.772-1.92 5.045-4.85 9.52-8.79 13.427-3.938 3.907-8.87 7.032-14.794 9.375-5.924 2.344-12.89 3.516-20.898 3.516h-27.44v50.195H8.397V720H53.32c8.138 0 15.235.944 21.29 2.832 6.054 1.888 11.1 4.557 15.136 8.008 4.037 3.45 7.064 7.6 9.082 12.45 2.018 4.85 3.027 10.24 3.027 16.163zm-18.75.293c0-8.138-2.67-14.307-8.007-18.506-5.34-4.2-13.347-6.3-24.024-6.3H27.05v51.857h24.805c5.34 0 9.978-.7 13.916-2.1 3.94-1.4 7.195-3.304 9.767-5.713 2.572-2.408 4.476-5.273 5.713-8.593 1.237-3.32 1.855-6.868 1.855-10.644zm118.95 91.992l-35.743-56.152H143.07v56.152h-18.652V720h47.07c7.813 0 14.632.83 20.46 2.49 5.826 1.66 10.676 4.07 14.55 7.227 3.874 3.157 6.77 6.982 8.69 11.474 1.922 4.494 2.882 9.572 2.882 15.236 0 4.036-.634 8.056-1.904 12.06-1.27 4.004-3.27 7.683-6.006 11.035-2.734 3.354-6.217 6.268-10.45 8.742-4.23 2.474-9.31 4.2-15.233 5.176l39.062 58.3h-21.485zm-2.735-95.02c0-14.518-9.895-21.777-29.687-21.777H143.07v45.9h27.344c5.404 0 9.945-.65 13.623-1.953 3.68-1.302 6.64-3.044 8.887-5.225 2.246-2.18 3.874-4.736 4.883-7.666 1.01-2.93 1.513-6.022 1.513-9.277zM244.344 720h80.37v15.234h-30.86v101.27h30.86v15.234h-80.37v-15.234h30.86v-101.27h-30.86V720zM432.14 851.738v-84.765c0-3.32.017-6.706.05-10.157.032-3.45.113-6.608.244-9.472.13-3.32.227-6.576.293-9.766-1.107 3.58-2.214 7.096-3.32 10.547-.912 2.93-1.905 6.022-2.98 9.277-1.073 3.256-2.066 6.12-2.978 8.594l-16.016 42.774h-13.38l-16.21-42.774c-.39-.976-.814-2.132-1.27-3.467-.456-1.335-.928-2.768-1.416-4.298-.488-1.53-.993-3.092-1.513-4.687-.52-1.595-1.042-3.174-1.563-4.736-1.172-3.582-2.376-7.326-3.613-11.232.064 3.125.13 6.38.194 9.766.065 2.93.114 6.103.147 9.52.033 3.42.05 6.788.05 10.11v84.764h-15.626V720h23.145l18.065 47.754c.586 1.497 1.254 3.5 2.002 6.006.75 2.506 1.48 4.996 2.198 7.47.78 2.865 1.595 5.892 2.44 9.082.912-3.06 1.76-5.99 2.54-8.79.716-2.407 1.465-4.88 2.246-7.42.782-2.54 1.466-4.623 2.052-6.25L425.988 720h21.973v131.738h-15.82zm40.337 0V720h89.746v15.234H491.13v41.21h65.233v15.04H491.13v45.02h75.097v15.234h-93.75zm285.457-116.504v116.504H739.38V735.234h-43.263V720h105.078v15.234h-43.26zm132.23 116.504v-60.84h-50.976v60.84h-18.653V720h18.653v55.273h50.976V720h18.652v131.738h-18.652zm-881.766 180V900h89.747v15.234H27.05v41.21h65.235v15.04H27.05v45.02h75.098v15.234H8.398zm307.723 0v-84.765c0-3.32.017-6.706.05-10.157.032-3.45.114-6.608.244-9.472.13-3.32.228-6.576.293-9.766-1.107 3.58-2.214 7.096-3.32 10.547-.912 2.93-1.905 6.022-2.98 9.277-1.073 3.256-2.066 6.12-2.977 8.594l-16.016 42.774h-13.38l-16.21-42.774c-.39-.976-.814-2.132-1.27-3.467-.455-1.335-.927-2.768-1.415-4.298-.49-1.53-.994-3.092-1.515-4.687-.52-1.595-1.042-3.174-1.563-4.736-1.17-3.582-2.376-7.326-3.613-11.232.064 3.125.13 6.38.195 9.766.065 2.93.113 6.103.146 9.52.034 3.42.05 6.788.05 10.11v84.764h-15.625V900h23.144l18.066 47.754c.586 1.497 1.253 3.5 2.002 6.006.748 2.506 1.48 4.996 2.197 7.47.78 2.865 1.595 5.892 2.44 9.082.913-3.06 1.76-5.99 2.54-8.79.717-2.407 1.465-4.88 2.247-7.42.78-2.54 1.464-4.623 2.05-6.25L309.97 900h21.97v131.738h-15.82zM360.364 900h80.37v15.234h-30.858v101.27h30.86v15.234h-80.372v-15.234h30.86v-101.27h-30.86V900zm177.934 131.738l-50.78-110.35c.26 2.798.52 5.663.78 8.592.195 2.474.374 5.16.537 8.057.163 2.897.244 5.615.244 8.154v85.548h-16.6V900h21.678l51.563 111.133c-.327-2.604-.62-5.404-.88-8.4-.26-2.538-.472-5.402-.635-8.592-.163-3.19-.244-6.445-.244-9.765V900h16.798v131.738h-22.46zM592.402 900h80.37v15.234h-30.858v101.27h30.86v15.234H592.4v-15.234h30.86v-101.27h-30.86V900zm206.45 95.605c0 5.534-1.01 10.63-3.028 15.284s-5.094 8.674-9.228 12.06c-4.134 3.385-9.375 6.02-15.723 7.91-6.348 1.887-13.883 2.83-22.607 2.83-15.235 0-27.1-2.993-35.596-8.983-8.496-5.99-13.916-14.648-16.26-25.977l18.067-3.613c.78 3.58 1.953 6.836 3.515 9.766 1.563 2.93 3.71 5.452 6.446 7.568 2.734 2.117 6.087 3.76 10.058 4.933 3.97 1.172 8.724 1.758 14.258 1.758 4.687 0 8.968-.44 12.842-1.318 3.873-.88 7.194-2.262 9.96-4.15 2.768-1.888 4.932-4.297 6.495-7.227 1.563-2.93 2.345-6.445 2.345-10.547 0-4.557-1.058-8.268-3.174-11.132-2.115-2.865-4.898-5.21-8.35-7.032-3.45-1.823-7.34-3.304-11.67-4.443-4.328-1.138-8.706-2.26-13.134-3.368-3.255-.846-6.543-1.742-9.863-2.686-3.32-.944-6.51-2.05-9.57-3.32-3.06-1.27-5.908-2.767-8.545-4.492-2.637-1.725-4.948-3.81-6.934-6.25-1.985-2.442-3.532-5.306-4.638-8.594-1.107-3.288-1.66-7.113-1.66-11.475 0-6.25 1.17-11.604 3.515-16.064 2.345-4.46 5.567-8.104 9.67-10.936 4.1-2.833 8.95-4.9 14.55-6.202 5.6-1.302 11.653-1.953 18.164-1.953 7.552 0 13.98.667 19.287 2 5.307 1.336 9.8 3.338 13.478 6.007 3.678 2.67 6.624 5.973 8.837 9.912 2.214 3.938 3.972 8.51 5.274 13.72l-18.36 3.222c-.717-3.32-1.775-6.282-3.174-8.886-1.4-2.604-3.255-4.785-5.567-6.543-2.312-1.758-5.095-3.093-8.35-4.004-3.256-.913-7.097-1.368-11.524-1.368-5.208 0-9.57.537-13.086 1.61-3.515 1.075-6.347 2.54-8.496 4.396-2.148 1.855-3.694 4.052-4.638 6.59-.944 2.54-1.416 5.275-1.416 8.205 0 3.906.862 7.08 2.587 9.52 1.726 2.442 4.07 4.46 7.032 6.056 2.96 1.594 6.41 2.912 10.35 3.954 3.94 1.04 8.155 2.148 12.647 3.32 3.58.912 7.194 1.872 10.84 2.88 3.645 1.01 7.145 2.198 10.498 3.565 3.352 1.367 6.477 2.978 9.375 4.833 2.897 1.856 5.42 4.118 7.568 6.787 2.148 2.67 3.84 5.795 5.078 9.375 1.237 3.58 1.856 7.748 1.856 12.5zm75.1-80.37v116.503H855.4V915.234h-43.26V900h105.077v15.234h-43.262zM8.4 1211.737V1080h89.747v15.234H27.05v41.21h65.235v15.04H27.05v45.02h75.098v15.234H8.398zm193.657 0l-35.743-56.152H143.07v56.152h-18.652V1080h47.07c7.813 0 14.632.83 20.46 2.49 5.826 1.66 10.676 4.07 14.55 7.227 3.874 3.157 6.77 6.982 8.69 11.474 1.922 4.494 2.882 9.572 2.882 15.236 0 4.036-.634 8.056-1.904 12.06-1.27 4.004-3.27 7.683-6.006 11.035-2.734 3.354-6.217 6.268-10.45 8.742-4.23 2.474-9.31 4.2-15.233 5.176l39.062 58.3h-21.485zm-2.735-95.02c0-14.518-9.895-21.777-29.687-21.777H143.07v45.9h27.344c5.404 0 9.945-.65 13.623-1.953 3.68-1.302 6.64-3.044 8.887-5.225 2.246-2.18 3.874-4.736 4.883-7.666 1.01-2.93 1.513-6.022 1.513-9.277zm250.594 2.735c0 5.47-.96 10.726-2.88 15.772-1.92 5.045-4.85 9.52-8.79 13.427-3.94 3.907-8.87 7.032-14.795 9.375-5.925 2.344-12.89 3.516-20.9 3.516h-27.44v50.195h-18.653V1080h44.922c8.137 0 15.233.944 21.288 2.832s11.1 4.557 15.137 8.008c4.036 3.45 7.063 7.6 9.082 12.45 2.018 4.85 3.027 10.24 3.027 16.163zm-18.75.293c0-8.138-2.67-14.307-8.008-18.506-5.338-4.2-13.346-6.3-24.023-6.3H375.11v51.857h24.804c5.34 0 9.977-.7 13.916-2.1 3.94-1.4 7.194-3.304 9.766-5.713 2.57-2.408 4.476-5.273 5.713-8.593 1.236-3.32 1.854-6.868 1.854-10.644zm118.95 91.992l-35.743-56.152h-23.24v56.152h-18.653V1080h47.07c7.812 0 14.632.83 20.46 2.49 5.826 1.66 10.676 4.07 14.55 7.227 3.873 3.157 6.77 6.982 8.69 11.474 1.922 4.494 2.882 9.572 2.882 15.236 0 4.036-.636 8.056-1.905 12.06-1.27 4.004-3.272 7.683-6.006 11.035-2.736 3.354-6.22 6.268-10.45 8.742-4.232 2.474-9.31 4.2-15.235 5.176l39.063 58.3h-21.485zm-2.735-95.02c0-14.518-9.897-21.777-29.69-21.777h-26.56v45.9h27.343c5.403 0 9.944-.65 13.623-1.953 3.678-1.302 6.64-3.044 8.886-5.225 2.247-2.18 3.874-4.736 4.883-7.666 1.01-2.93 1.514-6.022 1.514-9.277zM592.4 1080h80.37v15.234h-30.858v101.27h30.86v15.234H592.4v-15.234h30.86v-101.27h-30.86V1080zM780.2 1211.738v-84.765c0-3.32.015-6.706.048-10.157.033-3.45.114-6.608.244-9.472.13-3.32.228-6.576.293-9.766-1.107 3.58-2.213 7.096-3.32 10.547-.912 2.93-1.904 6.022-2.98 9.277-1.073 3.256-2.066 6.12-2.977 8.594l-16.016 42.774h-13.38l-16.21-42.774c-.39-.976-.813-2.132-1.27-3.467-.455-1.335-.927-2.768-1.415-4.298-.488-1.53-.993-3.092-1.514-4.687-.52-1.595-1.042-3.174-1.562-4.736-1.17-3.582-2.376-7.326-3.613-11.232.065 3.125.13 6.38.196 9.766.065 2.93.114 6.103.146 9.52.032 3.42.048 6.788.048 10.11v84.764h-15.625V1080h23.144l18.067 47.754c.586 1.497 1.253 3.5 2.002 6.006.75 2.506 1.48 4.996 2.197 7.47.78 2.865 1.595 5.892 2.442 9.082.91-3.06 1.757-5.99 2.54-8.79.715-2.407 1.463-4.88 2.245-7.42.78-2.54 1.465-4.623 2.05-6.25L774.047 1080h21.973v131.738H780.2zm40.335 0V1080h89.746v15.234H839.19v41.21h65.234v15.04h-65.235v45.02h75.098v15.234h-93.75z" fill="url(#a)" fill-rule="evenodd" opacity=".2"/></svg>
