<svg width="500" height="500" viewBox="0 0 500 500" xmlns="http://www.w3.org/2000/svg"><path d="M478 500H22c0-12.15-9.85-22-22-22V22c12.15 0 22-9.85 22-22h456c0 12.15 9.85 22 22 22v456c-12.15 0-22 9.85-22 22zM247.593 155.434V140.98l25.612-9.387v7.03l22.346-8.19-8.26 17.177 8.26 9.723-26.9 9.86v-8.32l-16.057 5.885v48.172l15.89-36.328 18.342 46.728h26.453l-.25 26.53h-126.8l.81-25.555h23.024l20.947-47.703 16.583 36.283v-57.45zM370 67h14v366h-14V67zM117 49h267v14H117V49zm0 18h14v366h-14V67zm0 371h267v14H117v-14zm182.634-252.374c1.163 0 2.106-.943 2.106-2.106 0-1.163-.943-2.105-2.106-2.105-1.163 0-2.106.942-2.106 2.105s.943 2.106 2.106 2.106zm-102.807-33.25c5.4 10.152 14.867 1.888 14.867 1.888s-7.66 1.472-10.642-4.136c-2.982-5.608 2.53-11.12 2.53-11.12s-12.154 3.213-6.755 13.367zm4.808 162.782L195.248 348h-8.643l6.387-32.842h-11.894l1.29-6.68h32.43l-1.29 6.68h-11.893zm104.424 18.897h-5.773L297.563 348h-8.643l7.676-39.52h14.062c4.356 0 7.66.8 9.917 2.4 2.256 1.602 3.384 3.956 3.384 7.06 0 2.072-.436 4.147-1.305 6.227-.87 2.08-2.07 3.848-3.603 5.303-1.533 1.455-3.4 2.583-5.596 3.384-2.197.8-4.663 1.2-7.397 1.2zM255.53 348l4.952-25.43c.196-.996.538-2.475 1.026-4.438.488-1.963.87-3.423 1.142-4.38-2.11 5.312-3.486 8.643-4.13 9.99l-6.3 13.71h-6.386l-1.025-13.71c-.138-1.953-.236-5.283-.294-9.99-.547 4.297-.977 7.236-1.29 8.818l-4.95 25.43h-6.446l7.676-39.52h10.166l1.113 14.618.06 1.377c0 .84-.09 2.636-.265 5.39.996-2.91 1.826-5.156 2.49-6.738l6.826-14.648h9.815L262.036 348h-6.504zm-24.03 42c3.038 0 5.5-2.462 5.5-5.5s-2.462-5.5-5.5-5.5-5.5 2.462-5.5 5.5 2.462 5.5 5.5 5.5zm8 16c3.038 0 5.5-2.462 5.5-5.5s-2.462-5.5-5.5-5.5-5.5 2.462-5.5 5.5 2.462 5.5 5.5 5.5zm11 16c3.038 0 5.5-2.462 5.5-5.5s-2.462-5.5-5.5-5.5-5.5 2.462-5.5 5.5 2.462 5.5 5.5 5.5zm8-16c3.038 0 5.5-2.462 5.5-5.5s-2.462-5.5-5.5-5.5-5.5 2.462-5.5 5.5 2.462 5.5 5.5 5.5zm11-16c3.038 0 5.5-2.462 5.5-5.5s-2.462-5.5-5.5-5.5-5.5 2.462-5.5 5.5 2.462 5.5 5.5 5.5zm-19 0c3.038 0 5.5-2.462 5.5-5.5s-2.462-5.5-5.5-5.5-5.5 2.462-5.5 5.5 2.462 5.5 5.5 5.5z" fill="#010026" fill-rule="evenodd"/></svg>