<svg width="338" height="402" viewBox="0 0 338 402" xmlns="http://www.w3.org/2000/svg"><path d="M215.096 81.424v-11.79l-51.204 18.77v51.217l.108-.04v79.473L131.532 148l-41.88 95.397h-46.03L42 294.5h253.51l.502-53.054h-52.887L206.455 148l-32.832 75.078v-87.024l34.368-12.6v14.37l53.783-19.716-16.517-19.445 16.517-34.35-46.677 17.11zM-37-26h410v461H-37V-26zm314 205c3.866 0 7-3.134 7-7s-3.134-7-7-7-7 3.134-7 7 3.134 7 7 7zM65.596 88.832c-2.388-7.81 8.31-21.53 8.31-21.53S50.1 73.24 55.785 91.83c5.683 18.59 29.516 9.115 29.516 9.115s-17.32-4.305-19.706-12.115zM169 363l34-33h-68l34 33z" fill="#010026" fill-rule="evenodd"/></svg>