<svg width="500" height="500" viewBox="0 0 500 500" xmlns="http://www.w3.org/2000/svg"><g fill="none" fill-rule="evenodd"><path fill="#FFF" d="M0 0h500v500H0z"/><circle fill="#06E085" r="59"/><circle fill="#06E085" cy="500" r="59"/><circle fill="#06E085" cx="500" cy="500" r="59"/><circle fill="#06E085" cx="500" r="59"/><path d="M267.88 300.438c28.148 22.203-152.466 104.57-146.673 148.714 8.594 65.485 346.96-31.44 346.96-177.257 0-47.887-189.118-56.23-215.583-89.645C221.056 142.442 490 134.785 439.402 54.062 390.772-23.522 37 144.067 37 249c0 63.813 187.196 16.982 230.88 51.438z" fill="#FFE500"/><path d="M168 45l272.43 411h-108L60 45h108z" fill="#0AAFFF"/><path d="M145.973 268.907h38.27l34.817-79.29 31.83 69.636 30.458-69.637 30.487 77.67h43.97l-.42 44.098h-210.76l1.348-42.477z" fill="#06E085"/><g stroke="#06E085" stroke-width="8"><path d="M251 143.6v114.24M326.713 120.26l-13.73 28.55 13.73 16.163L282 181.36v-44.713l44.713-16.387z"/><path d="M289.57 122.188v42.57L247 180.36v-42.57l42.57-15.602z"/></g><path d="M87.5 441c8.56 0 31.61-16.382 31.61-24.942 0-8.56-23.05-6.058-31.61-6.058-8.56 0-15.5 6.94-15.5 15.5 0 8.56 6.94 15.5 15.5 15.5z" fill="#FFE500"/><circle fill="#FFE500" cx="52.5" cy="409.5" r="7.5"/><circle fill="#FF2175" cx="449.5" cy="120.5" r="8.5"/><circle fill="#FF2175" cx="455.5" cy="96.5" r="5.5"/><path d="M306.164 32.382S407.376 9.362 427.1 23.108M277.24 25.556s23.886-7.214 57.85-11.867M442.15 364.556s24.326-26.81 28.733-44.65M53.613 288.92S-.075 278.117 26.31 233.71" stroke="#FFE500" stroke-width="5"/></g></svg>